<svg width="154" height="93" viewBox="0 0 154 93" fill="none" xmlns="http://www.w3.org/2000/svg">
<path d="M76.8831 51.709V34.3796H83.3816C84.7129 34.3796 85.8298 34.6278 86.7324 35.1242C87.6406 35.6207 88.326 36.3032 88.7885 37.172C89.2568 38.035 89.4909 39.0166 89.4909 40.1166C89.4909 41.2279 89.2568 42.2151 88.7885 43.0781C88.3203 43.9412 87.6293 44.621 86.7155 45.1174C85.8016 45.6082 84.6762 45.8536 83.3393 45.8536H79.0323V43.2728H82.9162C83.6947 43.2728 84.3321 43.1374 84.8285 42.8666C85.3249 42.5958 85.6916 42.2235 85.9285 41.7497C86.1711 41.2758 86.2924 40.7315 86.2924 40.1166C86.2924 39.5017 86.1711 38.9602 85.9285 38.492C85.6916 38.0238 85.3221 37.6599 84.8201 37.4004C84.3236 37.1353 83.6834 37.0027 82.8993 37.0027H80.0223V51.709H76.8831ZM90.2951 51.709V38.712H93.2652V40.8781H93.4005C93.6375 40.1279 94.0436 39.5497 94.619 39.1435C95.2 38.7317 95.8629 38.5258 96.6075 38.5258C96.7767 38.5258 96.9657 38.5343 97.1744 38.5512C97.3888 38.5625 97.5665 38.5822 97.7075 38.6104V41.4281C97.5778 41.383 97.3719 41.3435 97.0898 41.3097C96.8134 41.2702 96.5454 41.2504 96.286 41.2504C95.7275 41.2504 95.2254 41.3717 94.7798 41.6143C94.3398 41.8512 93.9929 42.1812 93.739 42.6043C93.4852 43.0274 93.3582 43.5153 93.3582 44.0682V51.709H90.2951ZM103.09 51.9628C101.82 51.9628 100.72 51.6836 99.7895 51.1251C98.8587 50.5667 98.1366 49.7854 97.6233 48.7813C97.1156 47.7772 96.8618 46.6038 96.8618 45.2612C96.8618 43.9187 97.1156 42.7425 97.6233 41.7328C98.1366 40.723 98.8587 39.9389 99.7895 39.3804C100.72 38.822 101.82 38.5427 103.09 38.5427C104.359 38.5427 105.459 38.822 106.39 39.3804C107.32 39.9389 108.04 40.723 108.547 41.7328C109.061 42.7425 109.317 43.9187 109.317 45.2612C109.317 46.6038 109.061 47.7772 108.547 48.7813C108.04 49.7854 107.32 50.5667 106.39 51.1251C105.459 51.6836 104.359 51.9628 103.09 51.9628ZM103.106 49.509C103.795 49.509 104.37 49.32 104.833 48.942C105.295 48.5584 105.639 48.0451 105.865 47.402C106.096 46.7589 106.212 46.0425 106.212 45.2528C106.212 44.4574 106.096 43.7382 105.865 43.0951C105.639 42.4463 105.295 41.9302 104.833 41.5466C104.37 41.163 103.795 40.9712 103.106 40.9712C102.401 40.9712 101.815 41.163 101.346 41.5466C100.884 41.9302 100.537 42.4463 100.306 43.0951C100.08 43.7382 99.9672 44.4574 99.9672 45.2528C99.9672 46.0425 100.08 46.7589 100.306 47.402C100.537 48.0451 100.884 48.5584 101.346 48.942C101.815 49.32 102.401 49.509 103.106 49.509ZM111.188 34.3796L115.698 48.0197H115.875L120.377 34.3796H123.829L117.72 51.709H113.845L107.744 34.3796H111.188ZM124.189 51.709V38.712H127.252V51.709H124.189ZM125.729 36.8673C125.244 36.8673 124.827 36.7066 124.477 36.385C124.127 36.0578 123.952 35.6658 123.952 35.2089C123.952 34.7463 124.127 34.3542 124.477 34.0327C124.827 33.7055 125.244 33.5419 125.729 33.5419C126.22 33.5419 126.638 33.7055 126.982 34.0327C127.331 34.3542 127.506 34.7463 127.506 35.2089C127.506 35.6658 127.331 36.0578 126.982 36.385C126.638 36.7066 126.22 36.8673 125.729 36.8673ZM135.105 38.712V41.0812H127.634V38.712H135.105ZM129.478 35.5981H132.541V47.7997C132.541 48.2115 132.603 48.5274 132.728 48.7474C132.857 48.9618 133.027 49.1085 133.235 49.1874C133.444 49.2664 133.675 49.3059 133.929 49.3059C134.121 49.3059 134.296 49.2918 134.454 49.2636C134.617 49.2354 134.741 49.21 134.826 49.1874L135.342 51.5821C135.179 51.6385 134.944 51.7005 134.64 51.7682C134.341 51.8359 133.974 51.8754 133.54 51.8867C132.773 51.9092 132.082 51.7936 131.467 51.5398C130.852 51.2803 130.364 50.8797 130.003 50.3382C129.648 49.7967 129.473 49.1197 129.478 48.3074V35.5981ZM139.62 51.9713C138.796 51.9713 138.055 51.8246 137.395 51.5313C136.74 51.2323 136.221 50.7923 135.838 50.2113C135.46 49.6303 135.271 48.9138 135.271 48.062C135.271 47.3287 135.406 46.7223 135.677 46.2428C135.948 45.7633 136.317 45.3797 136.785 45.092C137.254 44.8043 137.781 44.5871 138.368 44.4405C138.96 44.2882 139.572 44.1782 140.204 44.1105C140.965 44.0315 141.583 43.961 142.057 43.8989C142.531 43.8312 142.875 43.7297 143.089 43.5943C143.309 43.4533 143.419 43.2361 143.419 42.9428V42.892C143.419 42.2546 143.23 41.761 142.852 41.4112C142.474 41.0615 141.93 40.8866 141.219 40.8866C140.469 40.8866 139.874 41.0502 139.434 41.3774C138.999 41.7045 138.706 42.091 138.554 42.5366L135.694 42.1304C135.919 41.3407 136.292 40.6807 136.811 40.1504C137.33 39.6145 137.964 39.214 138.715 38.9489C139.465 38.6781 140.294 38.5427 141.202 38.5427C141.828 38.5427 142.452 38.6161 143.072 38.7627C143.693 38.9094 144.26 39.152 144.773 39.4904C145.286 39.8233 145.698 40.2774 146.008 40.8527C146.324 41.4281 146.482 42.1474 146.482 43.0105V51.709H143.538V49.9236H143.436C143.25 50.2846 142.988 50.6231 142.649 50.939C142.316 51.2492 141.896 51.5003 141.388 51.6921C140.886 51.8782 140.297 51.9713 139.62 51.9713ZM140.415 49.7205C141.03 49.7205 141.563 49.5992 142.015 49.3567C142.466 49.1085 142.813 48.7813 143.055 48.3751C143.304 47.969 143.428 47.5261 143.428 47.0466V45.5151C143.332 45.5941 143.168 45.6674 142.937 45.7351C142.711 45.8028 142.457 45.862 142.175 45.9128C141.893 45.9636 141.614 46.0087 141.338 46.0482C141.061 46.0877 140.821 46.1215 140.618 46.1497C140.161 46.2118 139.752 46.3133 139.391 46.4543C139.03 46.5954 138.746 46.7928 138.537 47.0466C138.328 47.2948 138.224 47.6164 138.224 48.0113C138.224 48.5754 138.43 49.0013 138.841 49.289C139.253 49.5767 139.778 49.7205 140.415 49.7205ZM150.838 34.3796V51.709H147.775V34.3796H150.838Z" fill="black"/>
<g filter="url(#filter0_d_2_290)">
<rect x="26" y="23" width="40.5471" height="40.5471" rx="6.90163" fill="white"/>
</g>
<path d="M59.0741 46.1534C59.0744 45.2697 58.8306 44.4031 58.3696 43.6491C57.9087 42.895 57.2485 42.2829 56.4618 41.8801C55.6752 41.4773 54.7925 41.2995 53.9112 41.3662C53.0299 41.433 52.1842 41.7417 51.4672 42.2585C50.7502 42.7752 50.1897 43.4798 49.8477 44.2946C49.5056 45.1095 49.3952 46.003 49.5286 46.8766C49.662 47.7502 50.034 48.57 50.6037 49.2457C51.1733 49.9214 51.9185 50.4267 52.757 50.7059C52.5942 51.4557 52.1797 52.1271 51.5824 52.6087C50.9851 53.0903 50.2409 53.3529 49.4736 53.353H46.5935C45.7023 53.353 44.8476 52.999 44.2175 52.3689C43.5873 51.7388 43.2333 50.8843 43.2333 49.9932V45.5415C47.0411 44.8479 49.9537 41.4509 49.9537 37.4144V32.7143C49.9537 32.3991 49.8916 32.0871 49.771 31.7959C49.6503 31.5048 49.4735 31.2402 49.2507 31.0174C49.0278 30.7945 48.7632 30.6177 48.472 30.4971C48.1808 30.3765 47.8687 30.3145 47.5535 30.3145H45.6334C45.2515 30.3145 44.8852 30.4662 44.6151 30.7362C44.3451 31.0062 44.1934 31.3725 44.1934 31.7544C44.1934 32.1362 44.3451 32.5025 44.6151 32.7725C44.8852 33.0426 45.2515 33.1943 45.6334 33.1943H47.0735V37.4144C47.0735 40.3422 44.737 42.7565 41.864 42.7937C41.1647 42.803 40.4704 42.6734 39.8216 42.4123C39.1728 42.1511 38.5823 41.7637 38.0845 41.2725C37.5866 40.7813 37.1913 40.1961 36.9216 39.5509C36.6518 38.9057 36.5129 38.2133 36.513 37.514V33.1943H37.953C38.335 33.1943 38.7013 33.0426 38.9713 32.7725C39.2414 32.5025 39.3931 32.1362 39.3931 31.7544C39.3931 31.3725 39.2414 31.0062 38.9713 30.7362C38.7013 30.4662 38.335 30.3145 37.953 30.3145H36.0329C35.3964 30.3145 34.7859 30.5673 34.3358 31.0174C33.8857 31.4674 33.6328 32.0778 33.6328 32.7143V37.514C33.6329 39.4282 34.3061 41.2815 35.5346 42.7496C36.7631 44.2178 38.4687 45.2073 40.3532 45.5451V49.9932C40.3551 51.6475 41.0131 53.2334 42.183 54.4032C43.3529 55.5729 44.939 56.2309 46.5935 56.2328H49.4736C50.9975 56.231 52.4682 55.6723 53.6089 54.6619C54.7496 53.6515 55.4816 52.2591 55.6671 50.7467C56.6519 50.4465 57.5143 49.8382 58.1276 49.0114C58.7409 48.1846 59.0727 47.1828 59.0741 46.1534ZM54.2739 48.0733C53.8941 48.0733 53.5229 47.9607 53.2071 47.7498C52.8914 47.5388 52.6453 47.239 52.4999 46.8881C52.3546 46.5373 52.3166 46.1513 52.3907 45.7789C52.4648 45.4065 52.6476 45.0644 52.9162 44.7959C53.1847 44.5274 53.5268 44.3445 53.8993 44.2705C54.2717 44.1964 54.6578 44.2344 55.0087 44.3797C55.3595 44.525 55.6594 44.7711 55.8704 45.0868C56.0814 45.4025 56.194 45.7737 56.194 46.1534C56.194 46.6626 55.9917 47.1509 55.6316 47.511C55.2715 47.871 54.7831 48.0733 54.2739 48.0733Z" fill="url(#paint0_linear_2_290)"/>
<defs>
<filter id="filter0_d_2_290" x="0.118876" y="0.569692" width="92.3094" height="92.3094" filterUnits="userSpaceOnUse" color-interpolation-filters="sRGB">
<feFlood flood-opacity="0" result="BackgroundImageFix"/>
<feColorMatrix in="SourceAlpha" type="matrix" values="0 0 0 0 0 0 0 0 0 0 0 0 0 0 0 0 0 0 127 0" result="hardAlpha"/>
<feOffset dy="3.45082"/>
<feGaussianBlur stdDeviation="12.9406"/>
<feComposite in2="hardAlpha" operator="out"/>
<feColorMatrix type="matrix" values="0 0 0 0 0 0 0 0 0 0 0 0 0 0 0 0 0 0 0.09 0"/>
<feBlend mode="normal" in2="BackgroundImageFix" result="effect1_dropShadow_2_290"/>
<feBlend mode="normal" in="SourceGraphic" in2="effect1_dropShadow_2_290" result="shape"/>
</filter>
<linearGradient id="paint0_linear_2_290" x1="31.5657" y1="34.2102" x2="51.7597" y2="56.2328" gradientUnits="userSpaceOnUse">
<stop stop-color="#D86D6B"/>
<stop offset="0.228785" stop-color="#F5854E"/>
<stop offset="0.408008" stop-color="#F0C971"/>
<stop offset="0.634525" stop-color="#3CC6C1"/>
<stop offset="0.790545" stop-color="#419E80"/>
<stop offset="1" stop-color="#4188C1"/>
</linearGradient>
</defs>
</svg>
